<svg width="260" height="36" viewBox="0 0 260 36" fill="none" xmlns="http://www.w3.org/2000/svg">
    <path d="M75 18C75 27.9411 66.9411 36 57 36C47.0589 36 39 27.9411 39 18C39 8.05887 47.0589 0 57 0C66.9411 0 75 8.05887 75 18Z" fill="#F18669" />
    <mask id="mask0_1103_364" style="mask-type:alpha" maskUnits="userSpaceOnUse" x="39" y="0" width="36" height="36">
        <path d="M75 18C75 27.9411 66.9411 36 57 36C47.0589 36 39 27.9411 39 18C39 8.05887 47.0589 0 57 0C66.9411 0 75 8.05887 75 18Z" fill="#C4C4C4" />
    </mask>
    <g mask="url(#mask0_1103_364)">
        <path d="M63.912 8.01841C63.6 8.01841 63.288 8.22832 63 8.39158L54.6 13.2661V22.0123H45V26.6769H47.4L49.8 50H64.2L66.6 26.6769H69V22.0123H59.4V15.8083L65.4 12.3099C66.6 11.6568 66.912 10.3507 66.216 9.18457C65.712 8.34493 64.824 7.90179 63.912 8.01841Z" fill="#F8F8F8" />
    </g>
    <path d="M36 18C36 27.9411 27.9411 36 18 36C8.05887 36 0 27.9411 0 18C0 8.05887 8.05887 0 18 0C27.9411 0 36 8.05887 36 18Z" fill="#F1C369" />
    <mask id="mask1_1103_364" style="mask-type:alpha" maskUnits="userSpaceOnUse" x="0" y="0" width="36" height="36">
        <path d="M36 18C36 27.9411 27.9411 36 18 36C8.05887 36 0 27.9411 0 18C0 8.05887 8.05887 0 18 0C27.9411 0 36 8.05887 36 18Z" fill="#C4C4C4" />
    </mask>
    <g mask="url(#mask1_1103_364)">
        <path d="M10.375 8C9.74511 8 9.14102 8.24583 8.69562 8.68342C8.25022 9.121 8 9.7145 8 10.3333V23.1667C8 27.11 10.4462 30.47 13.9375 31.8467V46.5C13.9375 47.4283 14.3128 48.3185 14.9809 48.9749C15.649 49.6313 16.5552 50 17.5 50C18.4448 50 19.351 49.6313 20.0191 48.9749C20.6872 48.3185 21.0625 47.4283 21.0625 46.5V31.8467C24.5537 30.47 27 27.11 27 23.1667V10.3333C27 9.7145 26.7498 9.121 26.3044 8.68342C25.859 8.24583 25.2549 8 24.625 8C23.9951 8 23.391 8.24583 22.9456 8.68342C22.5002 9.121 22.25 9.7145 22.25 10.3333V19.6667C22.25 19.9761 22.1249 20.2728 21.9022 20.4916C21.6795 20.7104 21.3774 20.8333 21.0625 20.8333C20.7476 20.8333 20.4455 20.7104 20.2228 20.4916C20.0001 20.2728 19.875 19.9761 19.875 19.6667V10.3333C19.875 9.7145 19.6248 9.121 19.1794 8.68342C18.734 8.24583 18.1299 8 17.5 8C16.8701 8 16.266 8.24583 15.8206 8.68342C15.3752 9.121 15.125 9.7145 15.125 10.3333V19.6667C15.125 19.9761 14.9999 20.2728 14.7772 20.4916C14.5545 20.7104 14.2524 20.8333 13.9375 20.8333C13.6226 20.8333 13.3205 20.7104 13.0978 20.4916C12.8751 20.2728 12.75 19.9761 12.75 19.6667V10.3333C12.75 9.7145 12.4998 9.121 12.0544 8.68342C11.609 8.24583 11.0049 8 10.375 8Z" fill="#F8F8F8" />
    </g>
    <path d="M108.435 7V30H103.756V15.0401L97.5056 30H93.9627L87.6792 15.0401V30H83V7H88.3142L95.7341 24.1017L103.154 7H108.435Z" fill="#fff" />
    <path d="M117.74 7V30H113.061V7H117.74Z" fill="#fff" />
    <path d="M130.519 7C132.97 7 135.12 7.4723 136.969 8.4169C138.841 9.36151 140.278 10.7125 141.281 12.4699C142.306 14.2053 142.818 16.2264 142.818 18.533C142.818 20.8395 142.306 22.8606 141.281 24.596C140.278 26.3095 138.841 27.6385 136.969 28.5831C135.12 29.5277 132.97 30 130.519 30H122.363V7H130.519ZM130.351 26.0788C132.802 26.0788 134.696 25.4198 136.033 24.1017C137.37 22.7837 138.039 20.9274 138.039 18.533C138.039 16.1385 137.37 14.2713 136.033 12.9312C134.696 11.5692 132.802 10.8883 130.351 10.8883H127.043V26.0788H130.351Z" fill="#fff" />
    <path d="M151 7V30H146.321V7H151Z" fill="#fff" />
    <path d="M157 7.32772H165.225V8.19171H158.017V20.2876H164.024V21.1516H158.017V29.6723H157V7.32772Z" fill="#fff" />
    <path d="M168.462 7.32772H169.787C172.19 7.32772 174.038 7.94344 175.332 9.17487C176.646 10.4063 177.303 12.1641 177.303 14.4482C177.303 15.7591 176.975 16.9607 176.318 18.0531C175.681 19.1455 174.808 20.0095 173.699 20.6451C172.59 21.2608 171.368 21.5687 170.033 21.5687H169.818L177.766 29.6723H176.441L169.448 22.5816V29.6723H168.462V7.32772ZM170.002 20.7047C171.173 20.7047 172.241 20.4266 173.206 19.8705C174.172 19.3143 174.931 18.5695 175.486 17.636C176.04 16.6826 176.318 15.63 176.318 14.478C176.318 12.4719 175.753 10.9227 174.623 9.83031C173.514 8.73791 171.923 8.19171 169.848 8.19171H169.448V20.7047H170.002Z" fill="#fff" />
    <path d="M181.342 7.32772H182.358V29.6723H181.342V7.32772Z" fill="#fff" />
    <path d="M187.385 7.32772H195.672V8.19171H188.402V20.3472H194.471V21.2111H188.402V28.8083H195.672V29.6723H187.385V7.32772Z" fill="#fff" />
    <path d="M199.801 9.56218V29.6723H198.907V7L215.912 27.408V7.32772H216.806V30L199.801 9.56218Z" fill="#fff" />
    <path d="M221.681 7.32772H222.667C226.343 7.32772 229.177 8.30095 231.169 10.2474C233.182 12.174 234.188 14.9249 234.188 18.5C234.188 20.5458 233.675 22.4227 232.648 24.1308C231.621 25.8389 230.225 27.1896 228.458 28.1826C226.713 29.1757 224.782 29.6723 222.667 29.6723H221.681V7.32772ZM222.913 28.7487C224.803 28.7487 226.528 28.3018 228.089 27.408C229.65 26.4944 230.882 25.253 231.786 23.6839C232.71 22.1149 233.172 20.3869 233.172 18.5C233.172 15.2029 232.278 12.6706 230.492 10.9028C228.725 9.11528 226.199 8.2215 222.913 8.2215H222.667V28.7487H222.913Z" fill="#fff" />
    <path d="M238.378 7.32772H239.394V28.8083H246.542V29.6723H238.378V7.32772Z" fill="#fff" />
    <path d="M260 7.32772L253.13 20.7345V29.6723H252.114V20.7345L245.09 7.32772H246.199L252.637 19.5725L258.953 7.32772H260Z" fill="#fff" />
</svg>