<svg width="99" height="102" viewBox="0 0 99 102" fill="none" xmlns="http://www.w3.org/2000/svg">
<line x1="45.6143" y1="13.1613" x2="55.8983" y2="2.87721" stroke="black" stroke-width="3" stroke-linecap="round"/>
<line x1="85.9648" y1="44.8649" x2="96.2489" y2="34.5808" stroke="black" stroke-width="3" stroke-linecap="round"/>
<line x1="70.1758" y1="24.6895" x2="92.8652" y2="2.00002" stroke="black" stroke-width="3" stroke-linecap="round"/>
<path d="M53.5639 47.5978L53.2192 46.882L43.3932 26.48L43.3907 26.4748C42.83 25.299 41.6456 24.5526 40.3436 24.5526C39.0596 24.5526 37.8737 25.2966 37.3118 26.4748L37.3089 26.4809L27.4677 46.8828L27.1228 47.5978L26.3377 47.7147L4.39666 50.9833L4.38806 50.9845L4.38805 50.9845C3.13164 51.1642 2.07318 52.0552 1.67074 53.2921C1.26686 54.5441 1.59276 55.8984 2.50983 56.8258L18.4307 72.5771L18.9828 73.1233L18.8554 73.8895L15.0962 96.4915L15.0945 96.5018C14.871 97.7897 15.4052 99.0986 16.4518 99.8559C17.5002 100.614 18.886 100.711 20.0299 100.103C20.0308 100.103 20.0317 100.102 20.0326 100.102L39.6323 89.5441L40.3434 89.1611L41.0546 89.5439L60.675 100.104C61.7991 100.709 63.184 100.617 64.2355 99.8559L64.2412 99.8517C65.2904 99.1002 65.8211 97.7948 65.6064 96.4915L53.5639 47.5978ZM53.5639 47.5978L54.3498 47.7148L76.3091 50.9833L76.316 50.9843C77.5586 51.1634 78.6237 52.0542 79.0309 53.294C79.4354 54.5412 79.108 55.8959 78.1892 56.8262C78.1877 56.8277 78.1862 56.8293 78.1847 56.8308L62.2718 72.5772L61.7197 73.1234L61.8472 73.8895L65.6061 96.4899L53.5639 47.5978Z" stroke="#F18669" stroke-width="3"/>
</svg>
