<svg width="116" height="91" viewBox="0 0 116 91" fill="none" xmlns="http://www.w3.org/2000/svg">
<path d="M77.4647 50.4375H62.683V58.25H64.2389C69.3931 58.25 73.5748 62.4492 73.5748 67.625V80.125C73.5748 85.3008 69.3931 89.5 64.2389 89.5H51.7911C46.637 89.5 42.4553 85.3008 42.4553 80.125V67.625C42.4553 62.4492 46.637 58.25 51.7911 58.25H53.3471V50.4375H23.7836C22.9278 50.4375 22.2277 51.1406 22.2277 52V58.25H23.7836C28.9378 58.25 33.1195 62.4492 33.1195 67.625V80.125C33.1195 85.3008 28.9378 89.5 23.7836 89.5H11.3358C6.17973 89.5 2 85.3008 2 80.125V67.625C2 62.4492 6.17973 58.25 11.3358 58.25H12.8918V52C12.8918 45.9648 17.7678 41.0625 23.7836 41.0625H53.3471V33.25H51.7911C46.637 33.25 42.4553 29.0508 42.4553 23.875V11.375C42.4553 6.19727 46.637 2 51.7911 2H64.2389C69.3931 2 73.5748 6.19727 73.5748 11.375V23.875C73.5748 29.0508 69.3931 33.25 64.2389 33.25H62.683V41.0625H77.4647" stroke="black" stroke-width="3" stroke-linecap="round"/>
<path d="M85 50.4375H92.246C93.1018 50.4375 93.802 51.1406 93.802 52V58.25H92.246C87.0918 58.25 82.9102 62.4492 82.9102 67.625V80.125C82.9102 85.3008 87.0918 89.5 92.246 89.5H104.694C109.848 89.5 114.03 85.3008 114.03 80.125V67.625C114.03 62.4492 109.848 58.25 104.694 58.25H103.138V52C103.138 45.9648 98.2559 41.0625 92.246 41.0625H85H81" stroke="#F18669" stroke-width="3" stroke-linecap="round"/>
</svg>
