<svg width="75" height="100" viewBox="0 0 75 100" fill="none" xmlns="http://www.w3.org/2000/svg">
<path d="M11 53.125C11 55.6697 13.0676 57.75 15.625 57.75H21.875C24.4222 57.75 26.5 55.6722 26.5 53.125V46.875C26.5 44.3278 24.4222 42.25 21.875 42.25H15.625C13.0676 42.25 11 44.3303 11 46.875V53.125ZM34.375 42.25C31.8278 42.25 29.75 44.3278 29.75 46.875V53.125C29.75 55.6722 31.8278 57.75 34.375 57.75H40.625C43.1722 57.75 45.25 55.6722 45.25 53.125V46.875C45.25 44.3278 43.1722 42.25 40.625 42.25H34.375ZM48.5 53.125C48.5 55.6722 50.5778 57.75 53.125 57.75H59.375C61.9222 57.75 64 55.6722 64 53.125V46.875C64 44.3278 61.9222 42.25 59.375 42.25H53.125C50.5778 42.25 48.5 44.3278 48.5 46.875V53.125ZM15.625 17.25C13.0676 17.25 11 19.3303 11 21.875V28.125C11 30.6697 13.0676 32.75 15.625 32.75H21.875C24.4222 32.75 26.5 30.6722 26.5 28.125V21.875C26.5 19.3278 24.4222 17.25 21.875 17.25H15.625ZM29.75 28.125C29.75 30.6722 31.8278 32.75 34.375 32.75H40.625C43.1722 32.75 45.25 30.6722 45.25 28.125V21.875C45.25 19.3278 43.1722 17.25 40.625 17.25H34.375C31.8278 17.25 29.75 19.3278 29.75 21.875V28.125ZM53.125 17.25C50.5778 17.25 48.5 19.3278 48.5 21.875V28.125C48.5 30.6722 50.5778 32.75 53.125 32.75H59.375C61.9222 32.75 64 30.6722 64 28.125V21.875C64 19.3278 61.9222 17.25 59.375 17.25H53.125Z" stroke="black" stroke-width="3"/>
<path d="M65.625 1.5C69.9726 1.5 73.5 5.0259 73.5 9.375V50V90.625C73.5 94.9724 69.9724 98.5 65.625 98.5H48.375V84.375C48.375 78.3708 43.5042 73.5 37.5 73.5C31.4958 73.5 26.625 78.3708 26.625 84.375V98.5H9.375C5.0259 98.5 1.5 94.9726 1.5 90.625V9.375C1.5 5.02569 5.02569 1.5 9.375 1.5H65.625ZM48.5 53.125C48.5 55.6722 50.5778 57.75 53.125 57.75H59.375C61.9222 57.75 64 55.6722 64 53.125V46.875C64 44.3278 61.9222 42.25 59.375 42.25H53.125C50.5778 42.25 48.5 44.3278 48.5 46.875V53.125Z" stroke="#F18669" stroke-width="3"/>
<path d="M65.625 1.5C69.9726 1.5 73.5 5.0259 73.5 9.375V50V90.625C73.5 94.9724 69.9724 98.5 65.625 98.5H48.375V84.375C48.375 78.3708 43.5042 73.5 37.5 73.5C31.4958 73.5 26.625 78.3708 26.625 84.375V98.5H9.375C5.0259 98.5 1.5 94.9726 1.5 90.625V9.375C1.5 5.02569 5.02569 1.5 9.375 1.5H65.625Z" stroke="black" stroke-width="3"/>
<path d="M65.625 1.5C69.9726 1.5 73.5 5.0259 73.5 9.375V50V90.625C73.5 94.9724 69.9724 98.5 65.625 98.5H48.375V84.375C48.375 78.3708 43.5042 73.5 37.5 73.5C31.4958 73.5 26.625 78.3708 26.625 84.375V98.5H9.375C5.0259 98.5 1.5 94.9726 1.5 90.625V9.375C1.5 5.02569 5.02569 1.5 9.375 1.5H65.625Z" stroke="black" stroke-width="3"/>
</svg>
