<svg width="100" height="100" viewBox="0 0 100 100" fill="none" xmlns="http://www.w3.org/2000/svg">
<path d="M70.8337 87.5V79.1667C70.8337 74.7464 69.0777 70.5072 65.9521 67.3816C62.8265 64.256 58.5873 62.5 54.167 62.5H20.8337C16.4134 62.5 12.1742 64.256 9.04855 67.3816C5.92294 70.5072 4.16699 74.7464 4.16699 79.1667V87.5" stroke="#F18669" stroke-width="3" stroke-linecap="round" stroke-linejoin="round"/>
<path d="M37.4997 45.8333C46.7044 45.8333 54.1663 38.3714 54.1663 29.1667C54.1663 19.9619 46.7044 12.5 37.4997 12.5C28.2949 12.5 20.833 19.9619 20.833 29.1667C20.833 38.3714 28.2949 45.8333 37.4997 45.8333Z" stroke="#F18669" stroke-width="3" stroke-linecap="round" stroke-linejoin="round"/>
<path d="M95.833 87.5V79.1666C95.8303 75.4738 94.6012 71.8865 92.3387 68.9679C90.0762 66.0494 86.9085 63.9648 83.333 63.0416" stroke="black" stroke-width="3" stroke-linecap="round" stroke-linejoin="round"/>
<path d="M66.667 13.0416C70.2521 13.9595 73.4296 16.0445 75.6988 18.9679C77.968 21.8913 79.1997 25.4868 79.1997 29.1875C79.1997 32.8882 77.968 36.4836 75.6988 39.407C73.4296 42.3304 70.2521 44.4154 66.667 45.3333" stroke="black" stroke-width="3" stroke-linecap="round" stroke-linejoin="round"/>
</svg>
