<svg viewBox="0 0 100 100" fill="none" xmlns="http://www.w3.org/2000/svg">
<circle cx="50" cy="50" r="50" fill="#f18669"/>
<mask id="mask0_18_2" style="mask-type:alpha" maskUnits="userSpaceOnUse" x="0" y="0" width="100" height="100">
<circle cx="50" cy="50" r="50" fill="#C4C4C4"/>
</mask>
<g mask="url(#mask0_18_2)">
<path d="M30.5 24C28.7761 24 27.1228 24.6848 25.9038 25.9038C24.6848 27.1228 24 28.7761 24 30.5V66.25C24 77.235 30.695 86.595 40.25 90.43V131.25C40.25 133.836 41.2772 136.316 43.1057 138.144C44.9342 139.973 47.4141 141 50 141C52.5859 141 55.0658 139.973 56.8943 138.144C58.7228 136.316 59.75 133.836 59.75 131.25V90.43C69.305 86.595 76 77.235 76 66.25V30.5C76 28.7761 75.3152 27.1228 74.0962 25.9038C72.8772 24.6848 71.2239 24 69.5 24C67.7761 24 66.1228 24.6848 64.9038 25.9038C63.6848 27.1228 63 28.7761 63 30.5V56.5C63 57.362 62.6576 58.1886 62.0481 58.7981C61.4386 59.4076 60.612 59.75 59.75 59.75C58.888 59.75 58.0614 59.4076 57.4519 58.7981C56.8424 58.1886 56.5 57.362 56.5 56.5V30.5C56.5 28.7761 55.8152 27.1228 54.5962 25.9038C53.3772 24.6848 51.7239 24 50 24C48.2761 24 46.6228 24.6848 45.4038 25.9038C44.1848 27.1228 43.5 28.7761 43.5 30.5V56.5C43.5 57.362 43.1576 58.1886 42.5481 58.7981C41.9386 59.4076 41.112 59.75 40.25 59.75C39.388 59.75 38.5614 59.4076 37.9519 58.7981C37.3424 58.1886 37 57.362 37 56.5V30.5C37 28.7761 36.3152 27.1228 35.0962 25.9038C33.8772 24.6848 32.2239 24 30.5 24Z" fill="#F8F8F8"/>
</g>
</svg>
