<svg viewBox="0 0 100 100" fill="none" xmlns="http://www.w3.org/2000/svg">
<circle cx="50" cy="50" r="50" fill="#5171A5"/>
<mask id="mask0_18_2" style="mask-type:alpha" maskUnits="userSpaceOnUse" x="0" y="0" width="100" height="100">
<circle cx="50" cy="50" r="50" fill="#C4C4C4"/>
</mask>
<g mask="url(#mask0_18_2)">
<path d="M78.9462 43.5255L71.4388 37.3503V27.4744C71.4388 26.3623 70.5422 25.4574 69.4403 25.4574H64.7165C63.6146 25.4574 62.7179 26.3623 62.7179 27.4744V30.1767L52.6866 21.9254C51.9609 21.3288 51.0045 21 49.9936 21C48.9867 21 48.0349 21.3268 47.3132 21.9203L21.0538 43.5253C19.8607 44.5065 19.9322 45.3611 20.081 45.7832C20.2295 46.2044 20.7075 46.9111 22.2402 46.9111H25.8359V75.323C25.8359 77.3506 27.466 79 29.4696 79H40.8249C42.8116 79 44.3678 77.3847 44.3678 75.323V63.6718C44.3678 62.6732 45.2771 61.7639 46.2755 61.7639H53.9062C54.8579 61.7639 55.6322 62.6198 55.6322 63.6718V75.323C55.6322 77.3162 57.3379 79 59.3568 79H70.5304C72.534 79 74.1641 77.3504 74.1641 75.323V46.9111H77.7598C79.2925 46.9111 79.7703 46.2044 79.919 45.7832C80.0678 45.3611 80.1393 44.5065 78.9462 43.5255Z" fill="white"/>
</g>
</svg>
