<svg width="221" height="100" viewBox="0 0 221 100" fill="none" xmlns="http://www.w3.org/2000/svg">
<path d="M170.161 29.8387C170.161 46.3182 156.622 59.6774 139.919 59.6774C123.217 59.6774 109.677 46.3182 109.677 29.8387C109.677 13.3592 123.217 0 139.919 0C156.622 0 170.161 13.3592 170.161 29.8387Z" fill="#F18669"/>
<mask id="mask0_3_998" style="mask-type:alpha" maskUnits="userSpaceOnUse" x="109" y="0" width="62" height="60">
<path d="M170.161 29.8387C170.161 46.3182 156.622 59.6774 139.919 59.6774C123.217 59.6774 109.677 46.3182 109.677 29.8387C109.677 13.3592 123.217 0 139.919 0C156.622 0 170.161 13.3592 170.161 29.8387Z" fill="#C4C4C4"/>
</mask>
<g mask="url(#mask0_3_998)">
<path d="M151.471 14.5469C150.968 14.5469 150.465 14.8976 150 15.1703L136.452 23.3132V37.9237H120.968V45.716H124.839L128.71 84.6774H151.936L155.806 45.716H159.677V37.9237H144.194V27.56L153.871 21.7158C155.806 20.6249 156.31 18.443 155.187 16.495C154.374 15.0924 152.942 14.3521 151.471 14.5469Z" fill="#F8F8F8"/>
</g>
<path d="M105.645 29.8387C105.645 46.3182 92.1055 59.6774 75.4033 59.6774C58.7012 59.6774 45.1614 46.3182 45.1614 29.8387C45.1614 13.3592 58.7012 0 75.4033 0C92.1055 0 105.645 13.3592 105.645 29.8387Z" fill="#F1C369"/>
<mask id="mask1_3_998" style="mask-type:alpha" maskUnits="userSpaceOnUse" x="45" y="0" width="61" height="60">
<path d="M105.645 29.8387C105.645 46.3182 92.1055 59.6774 75.4033 59.6774C58.7012 59.6774 45.1614 46.3182 45.1614 29.8387C45.1614 13.3592 58.7012 0 75.4033 0C92.1055 0 105.645 13.3592 105.645 29.8387Z" fill="#C4C4C4"/>
</mask>
<g mask="url(#mask1_3_998)">
<path d="M63.6088 14.5161C62.5661 14.5161 61.5662 14.9268 60.8289 15.6578C60.0916 16.3888 59.6774 17.3802 59.6774 18.414V39.8522C59.6774 46.4395 63.7268 52.0524 69.506 54.3522V78.8307C69.506 80.3813 70.1273 81.8685 71.2332 82.965C72.3392 84.0614 73.8391 84.6774 75.4032 84.6774C76.9672 84.6774 78.4672 84.0614 79.5731 82.965C80.679 81.8685 81.3004 80.3813 81.3004 78.8307V54.3522C87.0796 52.0524 91.129 46.4395 91.129 39.8522V18.414C91.129 17.3802 90.7148 16.3888 89.9775 15.6578C89.2402 14.9268 88.2402 14.5161 87.1975 14.5161C86.1548 14.5161 85.1549 14.9268 84.4176 15.6578C83.6803 16.3888 83.2661 17.3802 83.2661 18.414V34.0054C83.2661 34.5223 83.059 35.018 82.6903 35.3835C82.3217 35.749 81.8217 35.9543 81.3004 35.9543C80.779 35.9543 80.279 35.749 79.9104 35.3835C79.5417 35.018 79.3346 34.5223 79.3346 34.0054V18.414C79.3346 17.3802 78.9204 16.3888 78.1831 15.6578C77.4458 14.9268 76.4459 14.5161 75.4032 14.5161C74.3605 14.5161 73.3605 14.9268 72.6232 15.6578C71.8859 16.3888 71.4717 17.3802 71.4717 18.414V34.0054C71.4717 34.5223 71.2646 35.018 70.896 35.3835C70.5273 35.749 70.0273 35.9543 69.506 35.9543C68.9847 35.9543 68.4847 35.749 68.116 35.3835C67.7474 35.018 67.5403 34.5223 67.5403 34.0054V18.414C67.5403 17.3802 67.1261 16.3888 66.3888 15.6578C65.6515 14.9268 64.6515 14.5161 63.6088 14.5161Z" fill="#F8F8F8"/>
</g>
<path d="M31.9746 70.9677V100H26.0922V81.1165L18.2352 100H13.7814L5.88231 81.1165V100H0V70.9677H6.68062L16.0083 92.5547L25.3359 70.9677H31.9746Z" fill="#050517"/>
<path d="M43.6725 70.9677V100H37.7902V70.9677H43.6725Z" fill="#050517"/>
<path d="M59.7363 70.9677C62.8175 70.9677 65.5206 71.5639 67.8455 72.7562C70.1984 73.9486 72.0051 75.6539 73.2656 77.8722C74.5541 80.0628 75.1984 82.6139 75.1984 85.5254C75.1984 88.437 74.5541 90.988 73.2656 93.1786C72.0051 95.3415 70.1984 97.0191 67.8455 98.2115C65.5206 99.4038 62.8175 100 59.7363 100H49.4843V70.9677H59.7363ZM59.5262 95.0503C62.6074 95.0503 64.9883 94.2185 66.669 92.5547C68.3497 90.891 69.19 88.5479 69.19 85.5254C69.19 82.503 68.3497 80.146 66.669 78.4545C64.9883 76.7353 62.6074 75.8757 59.5262 75.8757H55.3666V95.0503H59.5262Z" fill="#050517"/>
<path d="M85.4839 70.9677V100H79.6016V70.9677H85.4839Z" fill="#050517"/>
<path d="M92.7419 71.3814H102.982V72.472H94.0075V87.7402H101.486V88.8308H94.0075V99.5863H92.7419V71.3814Z" fill="#050517"/>
<path d="M107.011 71.3814H108.66C111.652 71.3814 113.953 72.1586 115.564 73.713C117.2 75.2674 118.018 77.4862 118.018 80.3693C118.018 82.024 117.609 83.5408 116.791 84.9197C115.998 86.2986 114.912 87.3892 113.531 88.1915C112.15 88.9687 110.629 89.3573 108.967 89.3573H108.699L118.593 99.5863H116.944L108.238 90.6359V99.5863H107.011V71.3814ZM108.929 88.2667C110.386 88.2667 111.716 87.9157 112.917 87.2137C114.119 86.5118 115.065 85.5716 115.755 84.3933C116.446 83.1898 116.791 81.8611 116.791 80.407C116.791 77.8748 116.088 75.9192 114.681 74.5403C113.301 73.1614 111.319 72.472 108.737 72.472H108.238V88.2667H108.929Z" fill="#050517"/>
<path d="M123.045 71.3814H124.311V99.5863H123.045V71.3814Z" fill="#050517"/>
<path d="M130.569 71.3814H140.885V72.472H131.834V87.8154H139.389V88.906H131.834V98.4957H140.885V99.5863H130.569V71.3814Z" fill="#050517"/>
<path d="M146.025 74.2019V99.5863H144.913V70.9677L166.083 96.7282V71.3814H167.195V100L146.025 74.2019Z" fill="#050517"/>
<path d="M173.264 71.3814H174.491C179.068 71.3814 182.596 72.6099 185.076 75.0668C187.582 77.4987 188.835 80.9711 188.835 85.4838C188.835 88.0662 188.195 90.4354 186.917 92.5915C185.639 94.7476 183.9 96.4524 181.701 97.706C179.528 98.9595 177.125 99.5863 174.491 99.5863H173.264V71.3814ZM174.798 98.4205C177.15 98.4205 179.298 97.8564 181.241 96.7282C183.184 95.5749 184.718 94.008 185.843 92.0274C186.994 90.0468 187.569 87.8656 187.569 85.4838C187.569 81.322 186.457 78.1255 184.233 75.8942C182.034 73.6378 178.889 72.5096 174.798 72.5096H174.491V98.4205H174.798Z" fill="#050517"/>
<path d="M194.05 71.3814H195.316V98.4957H204.213V99.5863H194.05V71.3814Z" fill="#050517"/>
<path d="M220.968 71.3814L212.415 88.3043V99.5863H211.15V88.3043L202.406 71.3814H203.786L211.802 86.8377L219.664 71.3814H220.968Z" fill="#050517"/>
</svg>
